<mxfile host="app.diagrams.net" modified="2023-10-18T06:47:00.688Z" agent="Mozilla/5.0 (Macintosh; Intel Mac OS X 10_15_7) AppleWebKit/537.36 (KHTML, like Gecko) Chrome/118.0.0.0 Safari/537.36" version="22.0.4" etag="5-7c7qu3JDCT2nqTwXY0" type="github">
  <diagram name="第 1 页" id="20PwJDUKWuXvUzJzcv0k">
    <mxGraphModel>
      <root>
        <mxCell id="0" />
        <mxCell id="1" parent="0" />
      </root>
    </mxGraphModel>
  </diagram>
</mxfile>
